<svg width="100" height="120" viewBox="0 0 100 120" fill="none" xmlns="http://www.w3.org/2000/svg">
<ellipse cx="47.8261" cy="15.9336" rx="15.942" ry="15.9336" fill="#6D9BF5"/>
<ellipse cx="68.1159" cy="25.8921" rx="15.942" ry="15.9336" fill="#6D9BF5"/>
<ellipse cx="84.058" cy="47.8008" rx="15.942" ry="15.9336" fill="#6D9BF5"/>
<ellipse cx="25.6039" cy="25.8921" rx="15.942" ry="15.9336" fill="#6D9BF5"/>
<ellipse cx="57.4879" cy="36.3486" rx="15.942" ry="15.9336" fill="#6D9BF5"/>
<ellipse cx="41.5459" cy="41.8257" rx="15.942" ry="15.9336" fill="#6D9BF5"/>
<ellipse cx="15.942" cy="47.8008" rx="15.942" ry="15.9336" fill="#6D9BF5"/>
<ellipse cx="41.5459" cy="57.7593" rx="15.942" ry="15.9336" fill="#6D9BF5"/>
<ellipse cx="64.7343" cy="57.7593" rx="15.942" ry="15.9336" fill="#6D9BF5"/>
<ellipse cx="16.9082" cy="64.7905" rx="2.89855" ry="2.92739" fill="white"/>
<path d="M16.9082 59.2531L18.6926 62.4803H15.1238L16.9082 59.2531Z" fill="white"/>
<ellipse cx="44.4445" cy="61.8029" rx="2.89855" ry="2.92739" fill="white"/>
<path d="M44.4444 56.2656L46.2288 59.4927H42.6601L44.4444 56.2656Z" fill="white"/>
<ellipse cx="68.1159" cy="66.7822" rx="2.89855" ry="2.92739" fill="white"/>
<path d="M68.1159 61.2448L69.9003 64.472H66.3316L68.1159 61.2448Z" fill="white"/>
<ellipse cx="93.7198" cy="73.2552" rx="2.89855" ry="2.92739" fill="white"/>
<path d="M93.7198 67.7178L95.5042 70.945H91.9354L93.7198 67.7178Z" fill="white"/>
<ellipse cx="73.913" cy="89.1888" rx="2.89855" ry="2.92739" fill="white"/>
<path d="M73.913 83.6515L75.6974 86.8786H72.1287L73.913 83.6515Z" fill="white"/>
<ellipse cx="55.0725" cy="83.2137" rx="2.89855" ry="2.92739" fill="white"/>
<path d="M55.0725 77.6763L56.8568 80.9035H53.2881L55.0725 77.6763Z" fill="white"/>
<ellipse cx="28.5024" cy="79.2303" rx="2.89855" ry="2.92739" fill="white"/>
<path d="M28.5024 73.6929L30.2868 76.9201H26.718L28.5024 73.6929Z" fill="white"/>
<ellipse cx="16.9082" cy="94.666" rx="2.89855" ry="2.92739" fill="white"/>
<path d="M16.9082 89.1286L18.6926 92.3558H15.1238L16.9082 89.1286Z" fill="white"/>
<ellipse cx="41.5459" cy="99.1473" rx="2.89855" ry="2.92739" fill="white"/>
<path d="M41.5459 93.61L43.3303 96.8371H39.7615L41.5459 93.61Z" fill="white"/>
<ellipse cx="65.2174" cy="101.139" rx="2.89855" ry="2.92739" fill="white"/>
<path d="M65.2174 95.6017L67.0018 98.8288H63.433L65.2174 95.6017Z" fill="white"/>
<ellipse cx="90.8213" cy="96.6577" rx="2.89855" ry="2.92739" fill="white"/>
<path d="M90.8213 91.1203L92.6056 94.3475H89.0369L90.8213 91.1203Z" fill="white"/>
<ellipse cx="78.744" cy="117.073" rx="2.89855" ry="2.92739" fill="white"/>
<path d="M78.744 111.535L80.5283 114.762H76.9596L78.744 111.535Z" fill="white"/>
<ellipse cx="53.1401" cy="115.579" rx="2.89855" ry="2.92739" fill="white"/>
<path d="M53.1401 110.041L54.9245 113.269H51.3557L53.1401 110.041Z" fill="white"/>
<ellipse cx="30.4348" cy="113.089" rx="2.89855" ry="2.92739" fill="white"/>
<path d="M30.4348 107.552L32.2192 110.779H28.6504L30.4348 107.552Z" fill="white"/>
</svg>
