<svg width="320" height="160" viewBox="0 0 320 160" fill="none" xmlns="http://www.w3.org/2000/svg">
<g clip-path="url(#clip0_24_127)">
<path d="M69 124H55C50.5817 124 47 127.582 47 132V147C47 151.418 50.5817 155 55 155H69C73.4183 155 77 151.418 77 147V132C77 127.582 73.4183 124 69 124Z" fill="black"/>
<path d="M106 124H92C87.5817 124 84 127.582 84 132V147C84 151.418 87.5817 155 92 155H106C110.418 155 114 151.418 114 147V132C114 127.582 110.418 124 106 124Z" fill="black"/>
<path d="M130 105H121C116.582 105 113 108.582 113 113V123C113 127.418 116.582 131 121 131H130C134.418 131 138 127.418 138 123V113C138 108.582 134.418 105 130 105Z" fill="black"/>
<path d="M39 105H30C25.5817 105 22 108.582 22 113V123C22 127.418 25.5817 131 30 131H39C43.4183 131 47 127.418 47 123V113C47 108.582 43.4183 105 39 105Z" fill="black"/>
<path d="M110 62H51C45.4772 62 41 66.4772 41 72V129C41 134.523 45.4772 139 51 139H110C115.523 139 120 134.523 120 129V72C120 66.4772 115.523 62 110 62Z" fill="#B7E37F"/>
<path d="M115 5H45C36.7157 5 30 11.7157 30 20V90C30 98.2843 36.7157 105 45 105H115C123.284 105 130 98.2843 130 90V20C130 11.7157 123.284 5 115 5Z" fill="#E3AF7F"/>
<path d="M54.5 55C60.299 55 65 52.0899 65 48.5C65 44.9101 60.299 42 54.5 42C48.701 42 44 44.9101 44 48.5C44 52.0899 48.701 55 54.5 55Z" fill="black"/>
<path d="M54.5 51C56.433 51 58 49.6569 58 48C58 46.3431 56.433 45 54.5 45C52.567 45 51 46.3431 51 48C51 49.6569 52.567 51 54.5 51Z" fill="white"/>
<path d="M105.5 55C111.299 55 116 52.0899 116 48.5C116 44.9101 111.299 42 105.5 42C99.701 42 95 44.9101 95 48.5C95 52.0899 99.701 55 105.5 55Z" fill="black"/>
<path d="M105.5 51C107.433 51 109 49.6569 109 48C109 46.3431 107.433 45 105.5 45C103.567 45 102 46.3431 102 48C102 49.6569 103.567 51 105.5 51Z" fill="white"/>
<path fill-rule="evenodd" clip-rule="evenodd" d="M109.955 105C109.985 104.338 110 103.671 110 103C110 83.1177 96.7924 67 80.5 67C64.2076 67 51 83.1177 51 103C51 103.671 51.015 104.338 51.0448 105H109.955Z" fill="#A7A7A7"/>
<path d="M80 80C87.732 80 94 75.7467 94 70.5C94 65.2533 87.732 61 80 61C72.268 61 66 65.2533 66 70.5C66 75.7467 72.268 80 80 80Z" fill="black"/>
</g>
<g clip-path="url(#clip1_24_127)">
<path d="M229 124H215C210.582 124 207 127.582 207 132V147C207 151.418 210.582 155 215 155H229C233.418 155 237 151.418 237 147V132C237 127.582 233.418 124 229 124Z" fill="black"/>
<path d="M266 124H252C247.582 124 244 127.582 244 132V147C244 151.418 247.582 155 252 155H266C270.418 155 274 151.418 274 147V132C274 127.582 270.418 124 266 124Z" fill="black"/>
<path d="M290 105H281C276.582 105 273 108.582 273 113V123C273 127.418 276.582 131 281 131H290C294.418 131 298 127.418 298 123V113C298 108.582 294.418 105 290 105Z" fill="black"/>
<path d="M199 105H190C185.582 105 182 108.582 182 113V123C182 127.418 185.582 131 190 131H199C203.418 131 207 127.418 207 123V113C207 108.582 203.418 105 199 105Z" fill="black"/>
<path d="M270 62H211C205.477 62 201 66.4772 201 72V129C201 134.523 205.477 139 211 139H270C275.523 139 280 134.523 280 129V72C280 66.4772 275.523 62 270 62Z" fill="#B7E37F"/>
<path d="M275 5H205C196.716 5 190 11.7157 190 20V90C190 98.2843 196.716 105 205 105H275C283.284 105 290 98.2843 290 90V20C290 11.7157 283.284 5 275 5Z" fill="#E3AF7F"/>
<path d="M214.5 55C220.299 55 225 52.0899 225 48.5C225 44.9101 220.299 42 214.5 42C208.701 42 204 44.9101 204 48.5C204 52.0899 208.701 55 214.5 55Z" fill="black"/>
<path d="M214.5 51C216.433 51 218 49.6569 218 48C218 46.3431 216.433 45 214.5 45C212.567 45 211 46.3431 211 48C211 49.6569 212.567 51 214.5 51Z" fill="white"/>
<path d="M265.5 55C271.299 55 276 52.0899 276 48.5C276 44.9101 271.299 42 265.5 42C259.701 42 255 44.9101 255 48.5C255 52.0899 259.701 55 265.5 55Z" fill="black"/>
<path d="M265.5 51C267.433 51 269 49.6569 269 48C269 46.3431 267.433 45 265.5 45C263.567 45 262 46.3431 262 48C262 49.6569 263.567 51 265.5 51Z" fill="white"/>
<path fill-rule="evenodd" clip-rule="evenodd" d="M269.955 105C269.985 104.338 270 103.671 270 103C270 83.1177 256.792 67 240.5 67C224.208 67 211 83.1177 211 103C211 103.671 211.015 104.338 211.045 105H269.955Z" fill="#A7A7A7"/>
<path d="M240 80C247.732 80 254 75.7467 254 70.5C254 65.2533 247.732 61 240 61C232.268 61 226 65.2533 226 70.5C226 75.7467 232.268 80 240 80Z" fill="black"/>
</g>
<g filter="url(#filter0_d_24_127)">
<path d="M183.061 70.0607C183.646 69.4749 183.646 68.5251 183.061 67.9393L173.515 58.3934C172.929 57.8076 171.979 57.8076 171.393 58.3934C170.808 58.9792 170.808 59.9289 171.393 60.5147L179.879 69L171.393 77.4853C170.808 78.0711 170.808 79.0208 171.393 79.6066C171.979 80.1924 172.929 80.1924 173.515 79.6066L183.061 70.0607ZM148 70.5H182V67.5H148V70.5Z" fill="black"/>
</g>
<g filter="url(#filter1_d_24_127)">
<path d="M146.939 87.9393C146.354 88.5251 146.354 89.4749 146.939 90.0607L156.485 99.6066C157.071 100.192 158.021 100.192 158.607 99.6066C159.192 99.0208 159.192 98.0711 158.607 97.4853L150.121 89L158.607 80.5147C159.192 79.9289 159.192 78.9792 158.607 78.3934C158.021 77.8076 157.071 77.8076 156.485 78.3934L146.939 87.9393ZM182 87.5H148V90.5H182V87.5Z" fill="black"/>
</g>
<defs>
<filter id="filter0_d_24_127" x="144" y="57.9541" width="43.5" height="30.0919" filterUnits="userSpaceOnUse" color-interpolation-filters="sRGB">
<feFlood flood-opacity="0" result="BackgroundImageFix"/>
<feColorMatrix in="SourceAlpha" type="matrix" values="0 0 0 0 0 0 0 0 0 0 0 0 0 0 0 0 0 0 127 0" result="hardAlpha"/>
<feOffset dy="4"/>
<feGaussianBlur stdDeviation="2"/>
<feComposite in2="hardAlpha" operator="out"/>
<feColorMatrix type="matrix" values="0 0 0 0 0 0 0 0 0 0 0 0 0 0 0 0 0 0 0.25 0"/>
<feBlend mode="normal" in2="BackgroundImageFix" result="effect1_dropShadow_24_127"/>
<feBlend mode="normal" in="SourceGraphic" in2="effect1_dropShadow_24_127" result="shape"/>
</filter>
<filter id="filter1_d_24_127" x="142.5" y="77.9541" width="43.5" height="30.0919" filterUnits="userSpaceOnUse" color-interpolation-filters="sRGB">
<feFlood flood-opacity="0" result="BackgroundImageFix"/>
<feColorMatrix in="SourceAlpha" type="matrix" values="0 0 0 0 0 0 0 0 0 0 0 0 0 0 0 0 0 0 127 0" result="hardAlpha"/>
<feOffset dy="4"/>
<feGaussianBlur stdDeviation="2"/>
<feComposite in2="hardAlpha" operator="out"/>
<feColorMatrix type="matrix" values="0 0 0 0 0 0 0 0 0 0 0 0 0 0 0 0 0 0 0.25 0"/>
<feBlend mode="normal" in2="BackgroundImageFix" result="effect1_dropShadow_24_127"/>
<feBlend mode="normal" in="SourceGraphic" in2="effect1_dropShadow_24_127" result="shape"/>
</filter>
<clipPath id="clip0_24_127">
<rect width="116" height="150" fill="white" transform="translate(22 5)"/>
</clipPath>
<clipPath id="clip1_24_127">
<rect width="116" height="150" fill="white" transform="translate(182 5)"/>
</clipPath>
</defs>
</svg>
